<svg width="3137" height="2167" viewBox="0 0 3137 2167" fill="none" xmlns="http://www.w3.org/2000/svg">
<g>
<g filter="url(#filter0_f_124_591)">
<circle cx="2173.25" cy="971.004" r="724" transform="rotate(-4.92768 2173.25 971.004)" stroke="#73E553" stroke-width="150"/>
</g>
<g filter="url(#filter1_f_124_591)">
<path d="M2121.7 373.017C2506.45 339.845 2844.96 624.394 2878.06 1008.25C2911.15 1392.1 2626.34 1730.39 2241.58 1763.56C1856.83 1796.73 1518.32 1512.19 1485.22 1128.33C1452.13 744.48 1736.94 406.19 2121.7 373.017Z" stroke="#C1EF94" stroke-width="200"/>
</g>
<g filter="url(#filter2_f_124_591)">
<circle cx="2172.66" cy="964.136" r="757.204" transform="rotate(-4.92768 2172.66 964.136)" stroke="white" stroke-width="83.592"/>
</g>
<g filter="url(#filter3_f_124_591)">
<circle cx="2172.66" cy="964.136" r="785.068" transform="rotate(-4.92768 2172.66 964.136)" stroke="white" stroke-width="27.864"/>
</g>
</g>
<defs>
<filter id="filter0_f_124_591" x="-250" y="-250" width="3637" height="2667" filterUnits="userSpaceOnUse" color-interpolation-filters="sRGB">
<feFlood flood-opacity="0" result="BackgroundImageFix"/>
<feBlend mode="normal" in="SourceGraphic" in2="BackgroundImageFix" result="shape"/>
<feGaussianBlur stdDeviation="69.66" result="effect1_foregroundBlur_124_591"/>
</filter>
<filter id="filter1_f_124_591" x="-250" y="-250" width="3637" height="2667" filterUnits="userSpaceOnUse" color-interpolation-filters="sRGB">
<feFlood flood-opacity="0" result="BackgroundImageFix"/>
<feBlend mode="normal" in="SourceGraphic" in2="BackgroundImageFix" result="shape"/>
<feGaussianBlur stdDeviation="69.66" result="effect1_foregroundBlur_124_591"/>
</filter>
<filter id="filter2_f_124_591" x="-250" y="-250" width="3637" height="2667" filterUnits="userSpaceOnUse" color-interpolation-filters="sRGB">
<feFlood flood-opacity="0" result="BackgroundImageFix"/>
<feBlend mode="normal" in="SourceGraphic" in2="BackgroundImageFix" result="shape"/>
<feGaussianBlur stdDeviation="41.796" result="effect1_foregroundBlur_124_591"/>
</filter>
<filter id="filter3_f_124_591" x="-250" y="-250" width="3637" height="2667" filterUnits="userSpaceOnUse" color-interpolation-filters="sRGB">
<feFlood flood-opacity="0" result="BackgroundImageFix"/>
<feBlend mode="normal" in="SourceGraphic" in2="BackgroundImageFix" result="shape"/>
<feGaussianBlur stdDeviation="82.5446" result="effect1_foregroundBlur_124_591"/>
</filter>
</defs>
</svg>
